<svg width="293" height="411" viewBox="0 0 293 411" fill="none" xmlns="http://www.w3.org/2000/svg">
<path opacity="0.6" d="M277.643 80.882L238.257 59.7699L238.257 104.301M277.643 80.882L238.257 104.301M277.643 80.882L277.643 261.846L238.257 238.427L238.257 104.301" stroke="#FFDA5D" stroke-width="2"/>
<path opacity="0.6" d="M83.5784 27.5478L122.965 2L122.965 50.9667M83.5784 27.5478L122.965 50.9667M83.5784 27.5478L83.5784 208.512L122.965 186.093L122.965 50.9667" stroke="#7CCDEF" stroke-width="2"/>
<path opacity="0.6" d="M17.4925 28.5478L56.8788 3L56.8788 51.9667M17.4925 28.5478L56.8788 51.9667M17.4925 28.5478L17.4926 215.512L56.8788 186.093L56.8788 51.9667" stroke="#EB9196" stroke-width="2"/>
<path opacity="0.6" d="M122.16 243.535L84.4926 266.199V220.871L197.494 157V198.207L162.566 219.223M122.16 243.535L122.16 375.397L162.566 348.613L162.566 219.223M122.16 243.535L162.566 219.223" stroke="#EB9196" stroke-width="2"/>
<path opacity="0.6" d="M175.318 287.089L199.084 301.713M175.318 287.089L231.991 254.185M175.318 287.089V345.584L208.129 365.691M199.084 301.713L231.991 281.605M199.084 301.713V334.616M231.991 281.605V254.185M231.991 281.605V312.68M231.991 281.605L266.726 302.227M231.991 254.185L290.493 287.089L266.726 302.227M231.991 380.315V354.724M231.991 380.315L266.726 355.968V330.96M231.991 380.315L208.129 365.691M231.991 354.724L199.084 334.616M231.991 354.724L266.726 330.96M199.084 334.616L231.991 312.68M266.726 330.96L290.493 316.336M266.726 330.96L231.991 312.68M290.493 316.336V367.656L233.819 409.563L186.287 380.315L208.129 365.691M290.493 316.336L266.726 302.227" stroke="#7CCDEF" stroke-width="2"/>
<path opacity="0.6" d="M190.742 215.989L226.298 195.884L226.298 235.919L190.742 215.989Z" stroke="#A2E29B" stroke-width="2"/>
<path opacity="0.6" d="M48.2112 263.967L16.0005 284.123L16.0005 241.858L48.2112 263.967Z" stroke="#FFDA5D" stroke-width="2"/>
<path opacity="0.6" d="M22.3457 228.524L70.5876 192L70.5876 264.424L22.3457 228.524Z" stroke="#A2E29B" stroke-width="2"/>
<path opacity="0.6" d="M175.493 269V227L207.493 247.243L175.493 269Z" stroke="#FFDA5D" stroke-width="2"/>
</svg>
