<svg width="24" height="24" viewBox="0 0 24 24" fill="none" xmlns="http://www.w3.org/2000/svg">
<path fill-rule="evenodd" clip-rule="evenodd" d="M20.24 17.14H21C21.2652 17.14 21.5196 17.2454 21.7071 17.4329C21.8946 17.6204 22 17.8748 22 18.14C22 18.4052 21.8946 18.6596 21.7071 18.8471C21.5196 19.0346 21.2652 19.14 21 19.14H3C2.73478 19.14 2.48043 19.0346 2.29289 18.8471C2.10536 18.6596 2 18.4052 2 18.14C2 17.8748 2.10536 17.6204 2.29289 17.4329C2.48043 17.2454 2.73478 17.14 3 17.14H3.94V11.97V11.5C3.97524 9.58994 4.63892 7.74471 5.82836 6.24978C7.01779 4.75485 8.6667 3.69353 10.52 3.23C10.5621 2.86967 10.7351 2.53736 11.0061 2.29618C11.2771 2.055 11.6272 1.92175 11.99 1.92175C12.3528 1.92175 12.7029 2.055 12.9739 2.29618C13.2449 2.53736 13.4179 2.86967 13.46 3.23C14.622 3.45206 15.7215 3.92503 16.6818 4.6159C17.6421 5.30677 18.4401 6.19889 19.02 7.23C19.1396 7.45854 19.1662 7.72443 19.0943 7.97214C19.0225 8.21985 18.8577 8.43021 18.6344 8.55929C18.4111 8.68837 18.1465 8.72617 17.896 8.66481C17.6455 8.60345 17.4284 8.44766 17.29 8.23C16.7872 7.28523 16.0407 6.49217 15.1282 5.93302C14.2156 5.37387 13.1701 5.06899 12.1 5.05C8.81 5.05 6.1 7.93 5.93 11.64V12V17.17H18.24V13V12.66C18.2228 12.3948 18.3116 12.1336 18.4869 11.9339C18.6623 11.7341 18.9098 11.6122 19.175 11.595C19.4402 11.5778 19.7014 11.6666 19.9011 11.8419C20.1009 12.0173 20.2228 12.2648 20.24 12.53V13V17.14ZM10.57 20.1H13.57C13.8352 20.1 14.0896 20.2054 14.2771 20.3929C14.4647 20.5804 14.57 20.8348 14.57 21.1C14.57 21.3652 14.4647 21.6196 14.2771 21.8071C14.0896 21.9946 13.8352 22.1 13.57 22.1H10.57C10.3048 22.1 10.0504 21.9946 9.8629 21.8071C9.67536 21.6196 9.57001 21.3652 9.57001 21.1C9.57001 20.8348 9.67536 20.5804 9.8629 20.3929C10.0504 20.2054 10.3048 20.1 10.57 20.1Z" fill="currentColor"/>
</svg>
