<svg width="24" height="24" viewBox="0 0 24 24" fill="none" xmlns="http://www.w3.org/2000/svg">
<path d="M21 14.46C21.2652 14.46 21.5196 14.3546 21.7071 14.1671C21.8946 13.9796 22 13.7252 22 13.46V5.17C22 4.77218 21.842 4.39065 21.5607 4.10934C21.2794 3.82804 20.8978 3.67 20.5 3.67H18V2.8C18 2.53479 17.8946 2.28043 17.7071 2.0929C17.5196 1.90536 17.2652 1.8 17 1.8C16.7348 1.8 16.4804 1.90536 16.2929 2.0929C16.1054 2.28043 16 2.53479 16 2.8V3.67H8V2.8C8 2.53479 7.89464 2.28043 7.70711 2.0929C7.51957 1.90536 7.26522 1.8 7 1.8C6.73478 1.8 6.48043 1.90536 6.29289 2.0929C6.10536 2.28043 6 2.53479 6 2.8V3.67H3.49C3.09391 3.67264 2.71494 3.83184 2.4358 4.11286C2.15665 4.39388 1.99999 4.77391 2 5.17V20.17C2 20.5678 2.15804 20.9494 2.43934 21.2307C2.72064 21.512 3.10218 21.67 3.5 21.67H20.5C20.8927 21.6701 21.2697 21.5162 21.5502 21.2413C21.8307 20.9665 21.9921 20.5926 22 20.2V17.61C22 17.3448 21.8946 17.0904 21.7071 16.9029C21.5196 16.7154 21.2652 16.61 21 16.61C20.7348 16.61 20.4804 16.7154 20.2929 16.9029C20.1054 17.0904 20 17.3448 20 17.61V19.7H4V10.23H20V13.46C20 13.7252 20.1054 13.9796 20.2929 14.1671C20.4804 14.3546 20.7348 14.46 21 14.46ZM4 9.23V5.67H6V6.46C6 6.72522 6.10536 6.97957 6.29289 7.16711C6.48043 7.35465 6.73478 7.46 7 7.46C7.26522 7.46 7.51957 7.35465 7.70711 7.16711C7.89464 6.97957 8 6.72522 8 6.46V5.67H16V6.46C16 6.72522 16.1054 6.97957 16.2929 7.16711C16.4804 7.35465 16.7348 7.46 17 7.46C17.2652 7.46 17.5196 7.35465 17.7071 7.16711C17.8946 6.97957 18 6.72522 18 6.46V5.67H20V9.23H4Z" fill="currentColor"/>
</svg>
