<svg width="24" height="24" viewBox="0 0 24 24" fill="none" xmlns="http://www.w3.org/2000/svg">
<path fill-rule="evenodd" clip-rule="evenodd" d="M7.28545 21.1797C8.74405 21.9289 10.3602 22.3198 12 22.32C13.6872 22.3202 15.3488 21.9066 16.8391 21.1157C18.3295 20.3247 19.6031 19.1803 20.5486 17.7829C21.494 16.3854 22.0824 14.7775 22.2623 13.0998C22.4421 11.4222 22.2078 9.72608 21.58 8.15999C21.4819 7.91334 21.2898 7.71578 21.046 7.61075C20.8022 7.50573 20.5267 7.50186 20.28 7.59999C20.0334 7.69812 19.8358 7.89022 19.7308 8.13401C19.6257 8.37781 19.6219 8.65334 19.72 8.89999C20.4703 10.7667 20.5179 12.8422 19.854 14.7414C19.1901 16.6406 17.8598 18.2344 16.1099 19.2271C14.36 20.2198 12.3094 20.544 10.3386 20.1394C8.36787 19.7349 6.61077 18.6292 5.39343 17.0274C4.17609 15.4256 3.58117 13.4366 3.71909 11.4295C3.857 9.42236 4.71838 7.53342 6.14337 6.11322C7.56836 4.69301 9.46019 3.83799 11.4678 3.70683C13.4753 3.57567 15.4623 4.17727 17.06 5.39999C17.2709 5.56178 17.5373 5.63317 17.8008 5.59848C18.0643 5.56378 18.3032 5.42584 18.465 5.21499C18.6268 5.00415 18.6982 4.73767 18.6635 4.47418C18.6288 4.21069 18.4909 3.97178 18.28 3.80999C16.9787 2.81228 15.4583 2.13904 13.8449 1.84606C12.2315 1.55307 10.5715 1.64877 9.00241 2.12523C7.43335 2.60169 6.00042 3.44518 4.82235 4.58583C3.64427 5.72648 2.75497 7.13144 2.22812 8.6843C1.70127 10.2372 1.55205 11.8932 1.79282 13.5152C2.03358 15.1373 2.6574 16.6786 3.61259 18.0114C4.56778 19.3443 5.82684 20.4304 7.28545 21.1797ZM11.47 13.85C11.6291 13.9486 11.8128 14.0006 12 14C12.142 14.0135 12.2852 13.9964 12.42 13.95L16.42 11.95C16.5382 11.8922 16.6438 11.8117 16.7309 11.7131C16.818 11.6145 16.8848 11.4997 16.9275 11.3753C16.9702 11.2508 16.988 11.1192 16.9799 10.9879C16.9717 10.8566 16.9378 10.7282 16.88 10.61C16.8222 10.4918 16.7417 10.3862 16.6431 10.2991C16.5445 10.212 16.4297 10.1452 16.3053 10.1025C16.1808 10.0598 16.0492 10.042 15.9179 10.0501C15.7866 10.0583 15.6582 10.0922 15.54 10.15L13 11.4V7.10001C13 6.83479 12.8946 6.58044 12.7071 6.3929C12.5196 6.20536 12.2652 6.10001 12 6.10001C11.7348 6.10001 11.4804 6.20536 11.2929 6.3929C11.1054 6.58044 11 6.83479 11 7.10001V13C10.9997 13.17 11.0426 13.3372 11.1249 13.4859C11.2071 13.6346 11.3259 13.7599 11.47 13.85Z" fill="currentColor"/>
</svg>
