<svg width="24" height="24" viewBox="0 0 24 24" fill="none" xmlns="http://www.w3.org/2000/svg">
<path fill-rule="evenodd" clip-rule="evenodd" d="M4.92888 17.6568C4.53836 18.0474 4.53836 18.6805 4.92888 19.0711C5.3194 19.4616 5.95257 19.4616 6.34309 19.0711L12 13.4142L17.6568 19.0711C18.0474 19.4616 18.6805 19.4616 19.071 19.0711C19.4616 18.6806 19.4616 18.0474 19.071 17.6569L13.4142 12L19.071 6.34314C19.4615 5.95261 19.4615 5.31945 19.071 4.92893C18.6805 4.5384 18.0473 4.5384 17.6568 4.92893L12 10.5858L6.34313 4.92894C5.9526 4.53842 5.31944 4.53842 4.92891 4.92894C4.53839 5.31946 4.53839 5.95263 4.92891 6.34315L10.5857 12L4.92888 17.6568Z" fill="currentColor"/>
</svg>
