<svg width="24" height="24" viewBox="0 0 24 24" fill="none" xmlns="http://www.w3.org/2000/svg">
<path d="M12.0125 7.66667C15.9717 7.66667 18.7317 10.1767 19.9325 11.53C18.765 13.0608 16.005 16 12.0125 16C8.32917 16 5.40417 13.0533 4.11417 11.4942C5.35833 10.1217 8.12833 7.66667 12.0125 7.66667ZM12.0125 6C5.705 6 2 11.4592 2 11.4592C2 11.4592 6.02917 17.6667 12.0125 17.6667C18.4567 17.6667 22 11.4592 22 11.4592C22 11.4592 18.4242 6 12.0125 6ZM12 10.1667C12.9192 10.1667 13.6667 10.9142 13.6667 11.8333C13.6667 12.7525 12.9192 13.5 12 13.5C11.0808 13.5 10.3333 12.7525 10.3333 11.8333C10.3333 10.9142 11.0808 10.1667 12 10.1667ZM12 8.5C10.1592 8.5 8.66667 9.99333 8.66667 11.8333C8.66667 13.6742 10.1592 15.1667 12 15.1667C13.8408 15.1667 15.3333 13.6742 15.3333 11.8333C15.3333 9.99333 13.8408 8.5 12 8.5Z" fill="#BEBEBE"/>
</svg>
