<svg width="24" height="24" viewBox="0 0 24 24" fill="none" xmlns="http://www.w3.org/2000/svg">
<path d="M18.46 4.85L17.59 4L15.59 2H5.42999C5.03217 2 4.65064 2.15804 4.36933 2.43934C4.08803 2.72064 3.92999 3.10218 3.92999 3.5V20.5C3.92999 20.8978 4.08803 21.2794 4.36933 21.5607C4.65064 21.842 5.03217 22 5.42999 22H18.57C18.9678 22 19.3493 21.842 19.6307 21.5607C19.912 21.2794 20.07 20.8978 20.07 20.5V18.2C20.07 17.9348 19.9646 17.6804 19.7771 17.4929C19.5896 17.3054 19.3352 17.2 19.07 17.2C18.8048 17.2 18.5504 17.3054 18.3629 17.4929C18.1754 17.6804 18.07 17.9348 18.07 18.2V20H5.92999V4H13.11V7.85C13.11 8.11522 13.2153 8.36957 13.4029 8.55711C13.5904 8.74464 13.8448 8.85 14.11 8.85H18.11V12.85C18.11 13.1152 18.2153 13.3696 18.4029 13.5571C18.5904 13.7446 18.8448 13.85 19.11 13.85C19.3752 13.85 19.6296 13.7446 19.8171 13.5571C20.0046 13.3696 20.11 13.1152 20.11 12.85V6.44L18.46 4.85ZM15.11 6.85V4.36L17.63 6.85H15.11Z" fill="currentColor"/>
</svg>
