<svg width="24" height="24" viewBox="0 0 24 24" fill="none" xmlns="http://www.w3.org/2000/svg">
<path d="M20.54 21H3.46C3.26212 20.9948 3.06723 20.9506 2.88655 20.8697C2.70587 20.7889 2.54298 20.6731 2.40726 20.529C2.27154 20.3849 2.16568 20.2154 2.09578 20.0302C2.02589 19.845 1.99333 19.6478 2 19.45V4.19C2.00262 3.79299 2.16149 3.41298 2.44223 3.13224C2.72297 2.8515 3.10298 2.69262 3.5 2.69H8.53C8.9226 2.69786 9.29647 2.85935 9.57132 3.13981C9.84616 3.42027 10.0001 3.79732 10 4.19V5H20.54C20.9308 5.01043 21.3022 5.17306 21.5749 5.45324C21.8476 5.73342 22.0001 6.10901 22 6.5V14C22 14.2652 21.8946 14.5196 21.7071 14.7071C21.5196 14.8946 21.2652 15 21 15C20.7348 15 20.4804 14.8946 20.2929 14.7071C20.1054 14.5196 20 14.2652 20 14V7H9.53C9.3305 7.00399 9.13222 6.96814 8.94675 6.89455C8.76129 6.82096 8.59237 6.7111 8.44989 6.57141C8.30741 6.43172 8.19423 6.26501 8.11698 6.08104C8.03973 5.89707 7.99996 5.69954 8 5.5V4.69H4V19H20V17.9C20 17.6348 20.1054 17.3804 20.2929 17.1929C20.4804 17.0054 20.7348 16.9 21 16.9C21.2652 16.9 21.5196 17.0054 21.7071 17.1929C21.8946 17.3804 22 17.6348 22 17.9V19.45C22.0067 19.6478 21.9741 19.845 21.9042 20.0302C21.8343 20.2154 21.7285 20.3849 21.5927 20.529C21.457 20.6731 21.2941 20.7889 21.1134 20.8697C20.9328 20.9506 20.7379 20.9948 20.54 21Z" fill="currentColor"/>
</svg>
