<svg width="24" height="24" viewBox="0 0 24 24" fill="none" xmlns="http://www.w3.org/2000/svg">
<path d="M12 2.14C10.3627 2.13884 8.75056 2.54211 7.30668 3.314C5.86281 4.08588 4.63196 5.20247 3.72349 6.56455C2.81503 7.92663 2.25708 9.49203 2.09923 11.1217C1.94137 12.7513 2.1885 14.3946 2.81866 15.9058C3.44881 17.4169 4.44248 18.749 5.71136 19.7836C6.98025 20.8183 8.48506 21.5235 10.0921 21.8366C11.6991 22.1497 13.3586 22.0609 14.9231 21.5783C16.4876 21.0957 17.9086 20.234 19.06 19.07C19.2226 18.8776 19.3065 18.6308 19.295 18.3792C19.2836 18.1275 19.1775 17.8895 18.9981 17.7126C18.8187 17.5357 18.5792 17.4331 18.3274 17.4252C18.0756 17.4173 17.8301 17.5047 17.64 17.67C16.4314 18.8877 14.8584 19.6777 13.16 19.92C15.1715 18.5907 16.6017 16.5456 17.16 14.2C18.2741 13.4827 19.2247 12.5389 19.95 11.43C19.95 11.65 19.95 11.86 19.95 12.08C19.9507 13.0323 19.7814 13.9772 19.45 14.87C19.3572 15.113 19.3627 15.3826 19.4654 15.6215C19.5681 15.8605 19.7599 16.0501 20 16.15C20.1228 16.1966 20.2535 16.2186 20.3848 16.2147C20.5161 16.2108 20.6453 16.1811 20.7651 16.1272C20.8849 16.0734 20.9929 15.9964 21.083 15.9008C21.173 15.8052 21.2434 15.6928 21.29 15.57C21.8509 14.0675 22.0404 12.4516 21.8421 10.8601C21.6439 9.26852 21.0638 7.7485 20.1514 6.42948C19.239 5.11047 18.0213 4.03156 16.602 3.28468C15.1826 2.5378 13.6038 2.14509 12 2.14ZM16.24 13.55C15.0948 14.2131 13.8108 14.6 12.49 14.68V5C13.683 5.76268 14.6641 6.81422 15.3423 8.05713C16.0206 9.30003 16.3741 10.6941 16.37 12.11C16.369 12.5925 16.3288 13.074 16.25 13.55H16.24ZM7.61999 12.08C7.6255 10.67 7.98333 9.28379 8.66095 8.04731C9.33857 6.81083 10.3145 5.76332 11.5 5V14.69C10.1789 14.6115 8.89454 14.2245 7.74999 13.56C7.66562 13.0711 7.62214 12.5761 7.61999 12.08ZM11.5 15.7V19.17C9.93389 18.1463 8.74386 16.6403 8.10999 14.88C9.18073 15.3572 10.3295 15.6351 11.5 15.7ZM10.82 4.24C9.53087 5.10238 8.47356 6.26848 7.74116 7.63563C7.00876 9.00278 6.62373 10.529 6.61999 12.08C6.61999 12.32 6.61999 12.55 6.61999 12.78C5.66175 11.9921 4.88993 11.0017 4.35999 9.88C4.78388 8.42014 5.61795 7.11265 6.76308 6.11287C7.90822 5.11309 9.31628 4.46306 10.82 4.24ZM4.06999 12.08C4.06999 11.86 4.06999 11.65 4.06999 11.43C4.78868 12.5436 5.73638 13.4913 6.84999 14.21C7.39931 16.5407 8.80592 18.5793 10.79 19.92C8.91907 19.6291 7.2137 18.6792 5.98149 17.2416C4.74928 15.804 4.07135 13.9734 4.06999 12.08ZM12.5 19.17V15.7C13.6755 15.64 14.8291 15.3584 15.9 14.87C15.272 16.6391 14.0766 18.1509 12.5 19.17ZM17.35 12.78C17.35 12.55 17.35 12.32 17.35 12.08C17.3542 10.532 16.9768 9.00681 16.2512 7.63937C15.5256 6.27194 14.4742 5.10439 13.19 4.24C14.6796 4.47721 16.0718 5.1307 17.2059 6.12508C18.3401 7.11947 19.17 8.41423 19.6 9.86C19.0752 10.9878 18.3067 11.985 17.35 12.78Z" fill="currentColor"/>
</svg>
