<svg width="24" height="24" viewBox="0 0 24 24" fill="none" xmlns="http://www.w3.org/2000/svg">
<path d="M21.57 13.67H21.17V12.37C21.1552 11.8198 21.0984 11.2715 21 10.73C20.9166 10.137 20.7622 9.55611 20.54 9C20.2932 8.38055 19.9562 7.80096 19.54 7.28C19.2433 6.91192 18.9081 6.57667 18.54 6.28C17.7177 5.63342 16.7766 5.15438 15.77 4.87V4.37C15.7673 3.94739 15.5976 3.54299 15.2978 3.24509C14.9981 2.94719 14.5926 2.77999 14.17 2.78H10.28C9.85736 2.77999 9.45191 2.94719 9.15213 3.24509C8.85236 3.54299 8.68262 3.94739 8.67998 4.37V4.83C7.01777 5.2347 5.55049 6.21034 4.53429 7.5866C3.51809 8.96285 3.01752 10.6523 3.11998 12.36V13.66H2.71998C2.30624 13.66 1.90945 13.8244 1.6169 14.1169C1.32434 14.4095 1.15998 14.8063 1.15998 15.22V17.11C1.15862 17.5022 1.30501 17.8805 1.57001 18.1696C1.83501 18.4586 2.19918 18.6373 2.58998 18.67L8.25998 19.87C9.53497 20.1448 10.8357 20.2822 12.14 20.28C13.4372 20.2839 14.7311 20.1498 16 19.88L21.67 18.68C22.0626 18.6497 22.4292 18.4721 22.6963 18.1827C22.9634 17.8934 23.1112 17.5138 23.11 17.12V15.23C23.11 14.8197 22.9484 14.4259 22.6602 14.1339C22.3719 13.8419 21.9802 13.6753 21.57 13.67ZM21.14 16.76L15.62 17.93C13.3292 18.4201 10.9607 18.4201 8.66998 17.93L3.15998 16.76V15.67H5.99998C6.2652 15.67 6.51955 15.5646 6.70709 15.3771C6.89463 15.1896 6.99998 14.9352 6.99998 14.67C6.99998 14.4048 6.89463 14.1504 6.70709 13.9629C6.51955 13.7754 6.2652 13.67 5.99998 13.67H5.09998V12.37C5.01183 11.2038 5.31638 10.0416 5.96514 9.06843C6.61389 8.0953 7.56956 7.36718 8.67998 7V9.17C8.67998 9.43522 8.78534 9.68957 8.97288 9.87711C9.16041 10.0646 9.41477 10.17 9.67998 10.17C9.9452 10.17 10.1996 10.0646 10.3871 9.87711C10.5746 9.68957 10.68 9.43522 10.68 9.17V4.79H13.74V9.17C13.74 9.43522 13.8453 9.68957 14.0329 9.87711C14.2204 10.0646 14.4748 10.17 14.74 10.17C15.0052 10.17 15.2596 10.0646 15.4471 9.87711C15.6346 9.68957 15.74 9.43522 15.74 9.17V7C16.2853 7.2079 16.7974 7.49425 17.26 7.85C17.5183 8.05666 17.756 8.28773 17.97 8.54C18.2723 8.90835 18.5183 9.31948 18.7 9.76C18.8679 10.1794 18.9919 10.6151 19.07 11.06C19.1352 11.4936 19.1686 11.9315 19.17 12.37V13.67H11C10.7348 13.67 10.4804 13.7754 10.2929 13.9629C10.1053 14.1504 9.99998 14.4048 9.99998 14.67C9.99998 14.9352 10.1053 15.1896 10.2929 15.3771C10.4804 15.5646 10.7348 15.67 11 15.67H21.14V16.76Z" fill="currentColor"/>
</svg>
