<svg width="24" height="24" viewBox="0 0 24 24" fill="none" xmlns="http://www.w3.org/2000/svg">
<path fill-rule="evenodd" clip-rule="evenodd" d="M21.7071 7.70711C21.5196 7.89464 21.2652 8 21 8C20.7348 8 20.4804 7.89464 20.2929 7.70711C20.1054 7.51957 20 7.26522 20 7V6H3.99999V17H20.01V10.93C20.01 10.6648 20.1154 10.4104 20.3029 10.2229C20.4904 10.0354 20.7448 9.93 21.01 9.93C21.2752 9.93 21.5296 10.0354 21.7171 10.2229C21.9046 10.4104 22.01 10.6648 22.01 10.93V17.5C22.01 17.8978 21.852 18.2794 21.5707 18.5607C21.2893 18.842 20.9078 19 20.51 19H20.36V20.37C20.3601 20.5804 20.2999 20.7865 20.1865 20.9638C20.0731 21.141 19.9112 21.282 19.72 21.37C19.5761 21.4374 19.4189 21.4716 19.26 21.47C18.995 21.4714 18.7387 21.3753 18.54 21.2L16 19H3.49999C3.30046 19 3.10293 18.9603 2.91895 18.883C2.73498 18.8058 2.56827 18.6926 2.42859 18.5501C2.2889 18.4076 2.17904 18.2387 2.10545 18.0532C2.03186 17.8678 1.996 17.6695 1.99999 17.47V5.47C2.00785 5.0774 2.16934 4.70353 2.4498 4.42868C2.73026 4.15383 3.10731 3.99992 3.49999 4H20.47C20.667 3.99602 20.8628 4.03089 21.0463 4.10262C21.2299 4.17435 21.3974 4.28153 21.5395 4.41804C21.6816 4.55455 21.7954 4.71771 21.8744 4.89821C21.9534 5.07871 21.9961 5.27301 22 5.47V7C22 7.26522 21.8946 7.51957 21.7071 7.70711ZM6.53003 8H17.36C17.4926 8 17.6198 8.05268 17.7136 8.14645C17.8074 8.24021 17.86 8.36739 17.86 8.5C17.86 8.63261 17.8074 8.75979 17.7136 8.85355C17.6198 8.94732 17.4926 9 17.36 9H6.53003C6.39742 9 6.27024 8.94732 6.17648 8.85355C6.08271 8.75979 6.03003 8.63261 6.03003 8.5C6.03003 8.36739 6.08271 8.24021 6.17648 8.14645C6.27024 8.05268 6.39742 8 6.53003 8ZM17.86 11.48C17.86 11.3474 17.8074 11.2202 17.7136 11.1264C17.6198 11.0327 17.4926 10.98 17.36 10.98H6.53003C6.39742 10.98 6.27024 11.0327 6.17648 11.1264C6.08271 11.2202 6.03003 11.3474 6.03003 11.48C6.03003 11.6126 6.08271 11.7398 6.17648 11.8335C6.27024 11.9273 6.39742 11.98 6.53003 11.98H17.36C17.4926 11.98 17.6198 11.9273 17.7136 11.8335C17.8074 11.7398 17.86 11.6126 17.86 11.48ZM6.17648 14.0764C6.27024 13.9827 6.39742 13.93 6.53003 13.93H12.36C12.4926 13.93 12.6198 13.9827 12.7136 14.0764C12.8074 14.1702 12.86 14.2974 12.86 14.43C12.86 14.5626 12.8074 14.6898 12.7136 14.7835C12.6198 14.8773 12.4926 14.93 12.36 14.93H6.53003C6.39742 14.93 6.27024 14.8773 6.17648 14.7835C6.08271 14.6898 6.03003 14.5626 6.03003 14.43C6.03003 14.2974 6.08271 14.1702 6.17648 14.0764Z" fill="currentColor"/>
</svg>
