<svg width="24" height="24" viewBox="0 0 24 24" fill="none" xmlns="http://www.w3.org/2000/svg">
<path fill-rule="evenodd" clip-rule="evenodd" d="M21.7071 13.6271C21.5196 13.8146 21.2652 13.92 21 13.92C20.8678 13.92 20.737 13.8938 20.615 13.8429C20.493 13.7921 20.3823 13.7175 20.2893 13.6236C20.1963 13.5297 20.1229 13.4182 20.0732 13.2958C20.0236 13.1733 19.9987 13.0422 20 12.91V4H4V20H20V18C20 17.7348 20.1054 17.4804 20.2929 17.2929C20.4804 17.1054 20.7348 17 21 17C21.2652 17 21.5196 17.1054 21.7071 17.2929C21.8946 17.4804 22 17.7348 22 18V20.51C22 20.9078 21.842 21.2894 21.5607 21.5707C21.2794 21.852 20.8978 22.01 20.5 22.01H3.5C3.10218 22.01 2.72064 21.852 2.43934 21.5707C2.15804 21.2894 2 20.9078 2 20.51V3.51C1.99999 3.11125 2.15771 2.72868 2.43873 2.44579C2.71975 2.16289 3.10126 2.00264 3.5 2H20.5C20.6978 2 20.8937 2.03912 21.0763 2.11513C21.259 2.19114 21.4248 2.30252 21.5642 2.44287C21.7036 2.58322 21.8139 2.74976 21.8887 2.9329C21.9635 3.11605 22.0013 3.31218 22 3.51V12.92C22 13.1852 21.8946 13.4396 21.7071 13.6271ZM17.6371 8.70711C17.4496 8.89465 17.1952 9.00001 16.93 9.00001H13V11.06H15C15.7151 11.1619 16.3694 11.5184 16.8428 12.064C17.3162 12.6096 17.5768 13.3077 17.5768 14.03C17.5768 14.7523 17.3162 15.4504 16.8428 15.996C16.3694 16.5416 15.7151 16.8981 15 17H13V18.05C13 18.3152 12.8946 18.5696 12.7071 18.7571C12.5196 18.9447 12.2652 19.05 12 19.05C11.7348 19.05 11.4804 18.9447 11.2929 18.7571C11.1054 18.5696 11 18.3152 11 18.05V17H7C6.73478 17 6.48043 16.8947 6.29289 16.7071C6.10536 16.5196 6 16.2652 6 16C6 15.7348 6.10536 15.4804 6.29289 15.2929C6.48043 15.1054 6.73478 15 7 15H11V13.14H9C8.20435 13.14 7.44129 12.8239 6.87868 12.2613C6.31607 11.6987 6 10.9357 6 10.14V10C6 9.20436 6.31607 8.4413 6.87868 7.87869C7.44129 7.31608 8.20435 7.00001 9 7.00001H11V6.07001C11 5.80479 11.1054 5.55044 11.2929 5.3629C11.4804 5.17536 11.7348 5.07001 12 5.07001C12.2652 5.07001 12.5196 5.17536 12.7071 5.3629C12.8946 5.55044 13 5.80479 13 6.07001V7.00001H16.93C17.1952 7.00001 17.4496 7.10536 17.6371 7.2929C17.8246 7.48044 17.93 7.73479 17.93 8.00001C17.93 8.26522 17.8246 8.51958 17.6371 8.70711ZM9 11.06H11V9.00001H9C8.73478 9.00001 8.48043 9.10536 8.29289 9.2929C8.10536 9.48044 8 9.73479 8 10V10.06C8 10.3252 8.10536 10.5796 8.29289 10.7671C8.48043 10.9547 8.73478 11.06 9 11.06ZM15.5453 13.4148C15.4081 13.2391 15.2162 13.1142 15 13.06H13V15H15C15.2162 14.9458 15.4081 14.8209 15.5453 14.6452C15.6824 14.4694 15.7569 14.2529 15.7569 14.03C15.7569 13.8071 15.6824 13.5906 15.5453 13.4148Z" fill="currentColor"/>
</svg>
