<svg width="24" height="24" viewBox="0 0 24 24" fill="none" xmlns="http://www.w3.org/2000/svg">
<path fill-rule="evenodd" clip-rule="evenodd" d="M7.47998 18H5.34998C4.95215 18 4.57062 17.842 4.28932 17.5607C4.00801 17.2793 3.84998 16.8978 3.84998 16.5V14.36C3.84986 13.9593 4.008 13.5747 4.28998 13.29L14.71 2.66999C14.8487 2.52818 15.0144 2.41551 15.1973 2.33859C15.3802 2.26167 15.5766 2.22205 15.775 2.22205C15.9734 2.22205 16.1698 2.26167 16.3527 2.33859C16.5355 2.41551 16.7012 2.52818 16.84 2.66999L19 4.78999C19.1403 4.92858 19.2517 5.09364 19.3277 5.2756C19.4037 5.45755 19.4428 5.65279 19.4428 5.84999C19.4428 6.04719 19.4037 6.24243 19.3277 6.42439C19.2517 6.60635 19.1403 6.7714 19 6.90999L8.54998 17.54C8.41096 17.6837 8.24479 17.7983 8.06111 17.8773C7.87743 17.9563 7.6799 17.998 7.47998 18ZM5.84998 15.98H7.26998L17.21 5.84999L15.79 4.42999L5.84998 14.56V15.98ZM15.08 22H2.91998C2.65477 22 2.40041 21.8946 2.21288 21.7071C2.02534 21.5196 1.91998 21.2652 1.91998 21C1.91998 20.7348 2.02534 20.4804 2.21288 20.2929C2.40041 20.1054 2.65477 20 2.91998 20H15.08C15.3452 20 15.5996 20.1054 15.7871 20.2929C15.9746 20.4804 16.08 20.7348 16.08 21C16.08 21.2652 15.9746 21.5196 15.7871 21.7071C15.5996 21.8946 15.3452 22 15.08 22ZM18.92 22H21.08C21.3452 22 21.5996 21.8946 21.7871 21.7071C21.9746 21.5196 22.08 21.2652 22.08 21C22.08 20.7348 21.9746 20.4804 21.7871 20.2929C21.5996 20.1054 21.3452 20 21.08 20H18.92C18.6548 20 18.4004 20.1054 18.2129 20.2929C18.0253 20.4804 17.92 20.7348 17.92 21C17.92 21.2652 18.0253 21.5196 18.2129 21.7071C18.4004 21.8946 18.6548 22 18.92 22Z" fill="currentColor"/>
</svg>
