<svg width="24" height="24" viewBox="0 0 24 24" fill="none" xmlns="http://www.w3.org/2000/svg">
<path d="M18.9 18.66L17 15C16.8311 14.6739 16.5756 14.4006 16.2616 14.2101C15.9476 14.0196 15.5873 13.9192 15.22 13.92C14.9179 13.9234 14.6204 13.9952 14.35 14.13L13.72 14.43C12.9656 13.8376 12.3738 13.0634 12 12.18C11.5515 11.3959 11.3041 10.513 11.28 9.61001L11.87 9.32001C12.1057 9.2007 12.3154 9.03588 12.4871 8.83506C12.6587 8.63424 12.7889 8.40141 12.87 8.15001C12.9531 7.89818 12.9853 7.63234 12.9647 7.36796C12.9441 7.10358 12.8711 6.84593 12.75 6.61001L10.86 2.91001C10.6865 2.56965 10.4191 2.28611 10.0894 2.09295C9.75982 1.89978 9.38176 1.80507 9 1.82001C8.71027 1.81846 8.42366 1.87988 8.16 2.00001L7.3 2.42001C6.00001 3.14001 4 5.00001 5.26 10C5.78517 12.0312 6.59663 13.9774 7.67 15.78C7.69729 15.8464 7.73077 15.91 7.77 15.97C7.82357 16.0486 7.89141 16.1164 7.97 16.17C8.14326 16.3091 8.35788 16.3865 8.58 16.39C8.84522 16.39 9.09958 16.2847 9.28711 16.0971C9.47465 15.9096 9.58 15.6552 9.58 15.39C9.57278 15.2042 9.51391 15.0242 9.41 14.87C7 10.68 5.75001 5.51001 8.18001 4.24001L9 3.82001L10.9 7.52001L10.05 7.94001C7.55 9.29001 11.05 16.45 13.7 16.45C13.9117 16.4537 14.1211 16.4057 14.31 16.31L15.17 15.89L17.09 19.58L16.27 19.98C15.9857 20.1146 15.6746 20.183 15.36 20.18C14.18 20.18 12.86 19.29 11.62 17.92C11.55 17.86 11.5 17.79 11.44 17.73C11.2633 17.5665 11.0307 17.4771 10.79 17.48C10.5248 17.48 10.2704 17.5854 10.0829 17.7729C9.89536 17.9604 9.79 18.2148 9.79 18.48C9.78433 18.5064 9.78433 18.5336 9.79 18.56C9.7929 18.6669 9.81668 18.7722 9.86 18.87C9.88729 18.9364 9.92077 19 9.96 19.06L10.05 19.17C11.66 20.96 13.5 22.17 15.34 22.17C15.9406 22.1704 16.5342 22.0408 17.08 21.79H17.13L17.94 21.39C18.1801 21.2732 18.3944 21.1095 18.5702 20.9085C18.7461 20.7075 18.8799 20.4734 18.9637 20.2199C19.0476 19.9663 19.0799 19.6986 19.0586 19.4324C19.0374 19.1662 18.963 18.907 18.84 18.67L18.9 18.66Z" fill="currentColor"/>
</svg>
