<svg width="24" height="24" viewBox="0 0 24 24" fill="none" xmlns="http://www.w3.org/2000/svg">
<path fill-rule="evenodd" clip-rule="evenodd" d="M19.07 13.87C19.3352 13.87 19.5896 13.7646 19.7771 13.5771C19.9646 13.3896 20.07 13.1352 20.07 12.87V3.49C20.0674 3.09391 19.9082 2.71494 19.6271 2.4358C19.3461 2.15665 18.9661 1.99999 18.57 2H5.42999C5.03217 2 4.65064 2.15804 4.36933 2.43934C4.08803 2.72064 3.92999 3.10218 3.92999 3.5V20.5C3.92999 20.8978 4.08803 21.2794 4.36933 21.5607C4.65064 21.842 5.03217 22 5.42999 22H18.57C18.9678 22 19.3493 21.842 19.6307 21.5607C19.912 21.2794 20.07 20.8978 20.07 20.5V18.2C20.07 17.9348 19.9646 17.6804 19.7771 17.4929C19.5896 17.3054 19.3352 17.2 19.07 17.2C18.8048 17.2 18.5504 17.3054 18.3629 17.4929C18.1754 17.6804 18.07 17.9348 18.07 18.2V20H5.92999V4H18.07V12.88C18.0726 13.1435 18.1791 13.3953 18.3664 13.5807C18.5536 13.766 18.8065 13.87 19.07 13.87ZM8.56 8H15.4C15.5326 8 15.6598 7.94732 15.7536 7.85355C15.8473 7.75979 15.9 7.63261 15.9 7.5C15.9 7.36739 15.8473 7.24021 15.7536 7.14645C15.6598 7.05268 15.5326 7 15.4 7H8.56C8.42739 7 8.30021 7.05268 8.20644 7.14645C8.11268 7.24021 8.06 7.36739 8.06 7.5C8.06 7.63261 8.11268 7.75979 8.20644 7.85355C8.30021 7.94732 8.42739 8 8.56 8ZM15.4 10.94H8.56C8.42819 10.9374 8.3025 10.8839 8.20928 10.7907C8.11606 10.6975 8.06256 10.5718 8.06 10.44C8.06 10.3074 8.11268 10.1802 8.20644 10.0864C8.30021 9.99268 8.42739 9.94 8.56 9.94H15.4C15.5326 9.94 15.6598 9.99268 15.7536 10.0864C15.8473 10.1802 15.9 10.3074 15.9 10.44C15.9 10.5726 15.8473 10.6998 15.7536 10.7936C15.6598 10.8873 15.5326 10.94 15.4 10.94ZM8.56 13.89H15.4C15.5326 13.89 15.6598 13.8373 15.7536 13.7436C15.8473 13.6498 15.9 13.5226 15.9 13.39C15.9 13.2574 15.8473 13.1302 15.7536 13.0364C15.6598 12.9427 15.5326 12.89 15.4 12.89H8.56C8.42819 12.8926 8.3025 12.9461 8.20928 13.0393C8.11606 13.1325 8.06256 13.2582 8.06 13.39C8.06 13.5226 8.11268 13.6498 8.20644 13.7436C8.30021 13.8373 8.42739 13.89 8.56 13.89ZM15.42 16.9H8.59C8.45739 16.9 8.33021 16.8473 8.23644 16.7535C8.14267 16.6598 8.09 16.5326 8.09 16.4C8.09 16.2674 8.14267 16.1402 8.23644 16.0464C8.33021 15.9527 8.45739 15.9 8.59 15.9H15.42C15.5526 15.9 15.6798 15.9527 15.7736 16.0464C15.8673 16.1402 15.92 16.2674 15.92 16.4C15.92 16.5326 15.8673 16.6598 15.7736 16.7535C15.6798 16.8473 15.5526 16.9 15.42 16.9Z" fill="currentColor"/>
</svg>
