<svg width="24" height="24" viewBox="0 0 24 24" fill="none" xmlns="http://www.w3.org/2000/svg">
<path fill-rule="evenodd" clip-rule="evenodd" d="M16.06 2.51C14.5032 2.51 13.0101 3.12845 11.9093 4.22929C10.8085 5.33012 10.19 6.82318 10.19 8.38V8.83C9.55434 7.96917 8.6327 7.36303 7.59048 7.12036C6.54826 6.8777 5.45367 7.01438 4.50312 7.50588C3.55257 7.99739 2.80829 8.81155 2.40383 9.80227C1.99936 10.793 1.96119 11.8954 2.29616 12.9117C2.63112 13.9281 3.31731 14.7918 4.23158 15.3478C5.14585 15.9039 6.22836 16.116 7.28488 15.946C8.34139 15.776 9.30274 15.2351 9.99643 14.4203C10.6901 13.6054 11.0708 12.5701 11.07 11.5C11.7813 12.6459 12.866 13.5114 14.1412 13.9504C15.4165 14.3894 16.8041 14.3752 18.07 13.91C18.3233 13.8185 18.5299 13.6301 18.6442 13.3863C18.7586 13.1425 18.7715 12.8633 18.68 12.61C18.5885 12.3567 18.4001 12.1502 18.1563 12.0358C17.9125 11.9214 17.6333 11.9085 17.38 12C16.6065 12.2783 15.7644 12.303 14.9759 12.0706C14.1874 11.8382 13.4934 11.3607 12.9944 10.7074C12.4955 10.0541 12.2175 9.25889 12.2008 8.437C12.1841 7.61512 12.4296 6.80927 12.9016 6.13625C13.3737 5.46323 14.0477 4.95801 14.8262 4.69379C15.6046 4.42958 16.447 4.42011 17.2312 4.66676C18.0153 4.9134 18.7006 5.40335 19.1876 6.06559C19.6747 6.72783 19.9382 7.52795 19.94 8.35C19.9431 8.82479 19.8583 9.29605 19.69 9.74C19.5959 9.98798 19.6041 10.2632 19.7128 10.5051C19.8216 10.747 20.022 10.9359 20.27 11.03C20.518 11.1242 20.7932 11.1159 21.0351 11.0072C21.2771 10.8984 21.4659 10.698 21.56 10.45C21.8111 9.77833 21.9398 9.06709 21.94 8.35C21.9321 6.79665 21.3088 5.30978 20.2066 4.21514C19.1045 3.12049 17.6134 2.50734 16.06 2.51ZM6.57001 14C6.07117 14 5.58356 13.8519 5.16894 13.5746C4.75431 13.2973 4.43132 12.9031 4.24089 12.442C4.05045 11.981 4.00114 11.4738 4.09918 10.9847C4.19723 10.4956 4.43823 10.0466 4.79166 9.69456C5.14509 9.34253 5.59505 9.10331 6.08454 9.00721C6.57403 8.91111 7.08103 8.96244 7.54132 9.15471C8.00161 9.34698 8.39449 9.67153 8.67018 10.0873C8.94588 10.503 9.09199 10.9912 9.09001 11.49C9.08736 12.1566 8.82069 12.795 8.34839 13.2655C7.87608 13.7359 7.23662 14 6.57001 14ZM18.19 15.38H13.91C13.4238 15.3826 12.9583 15.5777 12.6154 15.9224C12.2725 16.2672 12.08 16.7337 12.08 17.22V20.49C12.08 20.7552 12.1854 21.0096 12.3729 21.1971C12.5604 21.3846 12.8148 21.49 13.08 21.49C13.3452 21.49 13.5996 21.3846 13.7871 21.1971C13.9747 21.0096 14.08 20.7552 14.08 20.49V17.38H18.08V20.49C18.08 20.7552 18.1854 21.0096 18.3729 21.1971C18.5604 21.3846 18.8148 21.49 19.08 21.49C19.3452 21.49 19.5996 21.3846 19.7871 21.1971C19.9747 21.0096 20.08 20.7552 20.08 20.49V17.22C20.0787 16.9745 20.0286 16.7317 19.9326 16.5058C19.8365 16.2798 19.6965 16.0753 19.5205 15.904C19.3446 15.7327 19.1364 15.5982 18.908 15.5082C18.6795 15.4183 18.4355 15.3747 18.19 15.38ZM4.86999 17.22H8.27999C8.72117 17.2226 9.14337 17.3998 9.4544 17.7127C9.76543 18.0256 9.94 18.4488 9.93999 18.89V20.49C9.93999 20.7552 9.83463 21.0096 9.6471 21.1971C9.45956 21.3846 9.20521 21.49 8.93999 21.49C8.67477 21.49 8.42042 21.3846 8.23288 21.1971C8.04535 21.0096 7.93999 20.7552 7.93999 20.49V19.22H5.20999V20.49C5.20999 20.7552 5.10463 21.0096 4.9171 21.1971C4.72956 21.3846 4.47521 21.49 4.20999 21.49C3.94477 21.49 3.69042 21.3846 3.50288 21.1971C3.31535 21.0096 3.20999 20.7552 3.20999 20.49V18.89C3.20867 18.6712 3.25064 18.4542 3.33347 18.2517C3.4163 18.0491 3.53837 17.8649 3.69264 17.7097C3.84692 17.5545 4.03036 17.4314 4.23242 17.3473C4.43447 17.2633 4.65115 17.22 4.86999 17.22Z" fill="currentColor"/>
</svg>
