<svg width="24" height="24" viewBox="0 0 24 24" fill="none" xmlns="http://www.w3.org/2000/svg">
<path fill-rule="evenodd" clip-rule="evenodd" d="M8.23877 14.409C9.35209 15.1529 10.661 15.55 12 15.55C13.0832 15.5451 14.1496 15.2811 15.11 14.78C15.338 14.6548 15.5082 14.4457 15.5846 14.1971C15.6609 13.9485 15.6374 13.6798 15.519 13.4483C15.4006 13.2167 15.1967 13.0403 14.9504 12.9566C14.7041 12.873 14.435 12.8885 14.2 13C13.2776 13.478 12.2242 13.641 11.2005 13.4644C10.1768 13.2877 9.23901 12.781 8.53019 12.0216C7.82136 11.2621 7.38045 10.2916 7.27471 9.2582C7.16897 8.22476 7.40422 7.1851 7.94456 6.29784C8.4849 5.41059 9.30067 4.72447 10.2674 4.34416C11.2341 3.96385 12.2987 3.91023 13.2987 4.19149C14.2988 4.47275 15.1793 5.07345 15.8061 5.90192C16.4328 6.7304 16.7714 7.74116 16.77 8.78C16.7738 9.41219 16.6479 10.0384 16.4 10.62C16.3494 10.7415 16.3233 10.8717 16.3231 11.0033C16.3228 11.1349 16.3485 11.2652 16.3987 11.3868C16.4488 11.5085 16.5224 11.6191 16.6153 11.7123C16.7082 11.8054 16.8185 11.8794 16.94 11.93C17.0615 11.9806 17.1917 12.0067 17.3233 12.0069C17.4548 12.0071 17.5852 11.9815 17.7068 11.9313C17.8285 11.8812 17.939 11.8076 18.0322 11.7147C18.1254 11.6218 18.1994 11.5115 18.25 11.39C18.5985 10.5642 18.7754 9.67625 18.77 8.78C18.77 7.44102 18.3729 6.13211 17.629 5.01879C16.8851 3.90547 15.8278 3.03774 14.5908 2.52533C13.3537 2.01293 11.9925 1.87886 10.6792 2.14008C9.36597 2.4013 8.15967 3.04608 7.21287 3.99288C6.26607 4.93969 5.62129 6.14598 5.36007 7.45924C5.09884 8.77249 5.23291 10.1337 5.74532 11.3708C6.25772 12.6078 7.12545 13.6651 8.23877 14.409ZM15.3629 21.9771C15.5504 22.1646 15.8048 22.27 16.07 22.27C16.3268 22.2703 16.5738 22.1719 16.76 21.995C16.9462 21.8181 17.0572 21.5765 17.07 21.32V18.5C17.07 18.1022 16.912 17.7206 16.6307 17.4393C16.3494 17.158 15.9678 17 15.57 17H8.45C8.0694 17.0125 7.7078 17.1693 7.43853 17.4385C7.16926 17.7078 7.01249 18.0694 7 18.45V21.32C7 21.5852 7.10536 21.8396 7.29289 22.0271C7.48043 22.2146 7.73478 22.32 8 22.32C8.26522 22.32 8.51957 22.2146 8.70711 22.0271C8.89464 21.8396 9 21.5852 9 21.32V19H15.07V21.27C15.07 21.5352 15.1754 21.7896 15.3629 21.9771Z" fill="currentColor"/>
</svg>
