<svg width="24" height="24" viewBox="0 0 24 24" fill="none" xmlns="http://www.w3.org/2000/svg">
<path fill-rule="evenodd" clip-rule="evenodd" d="M12 22.32C10.3602 22.3198 8.74405 21.9289 7.28545 21.1797C5.82684 20.4304 4.56778 19.3443 3.61259 18.0114C2.6574 16.6786 2.03358 15.1373 1.79282 13.5152C1.55205 11.8932 1.70127 10.2372 2.22812 8.6843C2.75497 7.13144 3.64427 5.72648 4.82235 4.58583C6.00042 3.44518 7.43335 2.60169 9.00241 2.12523C10.5715 1.64877 12.2315 1.55307 13.8449 1.84606C15.4583 2.13904 16.9787 2.81228 18.28 3.80999C18.4909 3.97178 18.6288 4.21069 18.6635 4.47418C18.6982 4.73767 18.6268 5.00415 18.465 5.21499C18.3032 5.42584 18.0643 5.56378 17.8008 5.59848C17.5373 5.63317 17.2709 5.56178 17.06 5.39999C15.4623 4.17727 13.4753 3.57567 11.4678 3.70683C9.46019 3.83799 7.56836 4.69301 6.14337 6.11322C4.71838 7.53342 3.857 9.42236 3.71909 11.4295C3.58117 13.4366 4.17609 15.4256 5.39343 17.0274C6.61077 18.6292 8.36787 19.7349 10.3386 20.1394C12.3094 20.544 14.36 20.2198 16.1099 19.2271C17.8598 18.2344 19.1901 16.6406 19.854 14.7414C20.5179 12.8422 20.4703 10.7667 19.72 8.89999C19.6219 8.65334 19.6257 8.37781 19.7308 8.13401C19.8358 7.89022 20.0334 7.69812 20.28 7.59999C20.5267 7.50186 20.8022 7.50573 21.046 7.61075C21.2898 7.71578 21.4819 7.91334 21.58 8.15999C22.2078 9.72608 22.4421 11.4222 22.2623 13.0998C22.0824 14.7775 21.494 16.3854 20.5486 17.7829C19.6031 19.1803 18.3295 20.3247 16.8391 21.1157C15.3488 21.9066 13.6872 22.3202 12 22.32ZM13 5.49001H11V15.3H13V5.49001ZM11 16.72H13V18.39H11V16.72Z" fill="currentColor"/>
</svg>
