<svg width="24" height="24" viewBox="0 0 24 24" fill="none" xmlns="http://www.w3.org/2000/svg">
<path d="M2 22.0955L3.41254 16.9351C2.5409 15.4246 2.08289 13.7123 2.08373 11.9565C2.08624 6.46705 6.55329 2 12.0419 2C14.7053 2.00084 17.2056 3.03826 19.0862 4.92054C20.9659 6.80281 22.0008 9.3047 22 11.9657C21.9975 17.4559 17.5304 21.923 12.0419 21.923C10.3756 21.9221 8.73365 21.5043 7.27924 20.7105L2 22.0955ZM7.52374 18.9078C8.92707 19.7409 10.2668 20.24 12.0385 20.2408C16.6002 20.2408 20.3162 16.5282 20.3187 11.964C20.3204 7.3906 16.622 3.68299 12.0452 3.68132C7.4802 3.68132 3.76673 7.39395 3.76505 11.9573C3.76421 13.8203 4.31014 15.2153 5.22699 16.6747L4.39052 19.7292L7.52374 18.9078ZM17.0582 14.3327C16.9962 14.2289 16.8304 14.167 16.5809 14.0422C16.3322 13.9174 15.1089 13.3154 14.8803 13.2325C14.6526 13.1496 14.4868 13.1078 14.3202 13.3573C14.1544 13.606 13.6771 14.167 13.5323 14.3327C13.3874 14.4985 13.2417 14.5195 12.993 14.3947C12.7444 14.2699 11.9422 14.0079 10.9919 13.1597C10.2525 12.4999 9.75266 11.6852 9.6078 11.4357C9.46295 11.187 9.59273 11.0522 9.71665 10.9282C9.82885 10.8169 9.96533 10.6377 10.0901 10.492C10.2165 10.348 10.2576 10.2442 10.3413 10.0775C10.4242 9.91175 10.3832 9.76606 10.3204 9.6413C10.2576 9.51737 9.76019 8.29239 9.55338 7.79419C9.35075 7.30939 9.14561 7.3747 8.99322 7.36716L8.51595 7.35879C8.35016 7.35879 8.08055 7.42075 7.8528 7.67027C7.62505 7.91979 6.982 8.52097 6.982 9.74596C6.982 10.9709 7.87373 12.1541 7.99765 12.3199C8.12241 12.4856 9.75182 14.9992 12.2478 16.0769C12.8415 16.3331 13.3054 16.4863 13.6662 16.601C14.2624 16.7903 14.805 16.7635 15.2337 16.6998C15.7118 16.6287 16.7057 16.0978 16.9133 15.5167C17.121 14.9348 17.121 14.4366 17.0582 14.3327Z" fill="currentColor"/>
</svg>
